<?xml version="1.0" encoding="UTF-8" standalone="no"?>
<svg width="13px" height="16px" viewBox="0 0 13 16" version="1.1" xmlns="http://www.w3.org/2000/svg" xmlns:xlink="http://www.w3.org/1999/xlink">
    <!-- Generator: Sketch 3.8.2 (29753) - http://www.bohemiancoding.com/sketch -->
    <title>icon_os_mac_os</title>
    <desc>Created with Sketch.</desc>
    <defs></defs>
    <g id="nteract-page" stroke="none" stroke-width="1" fill="none" fill-rule="evenodd">
        <g id="nteract-landing-page---1a" transform="translate(-453.000000, -484.000000)" fill="#C8D4E5">
            <g id="hero">
                <g id="hero_content" transform="translate(230.000000, 166.000000)">
                    <g id="download" transform="translate(0.000000, 250.000000)">
                        <g id="download--other_platforms" transform="translate(4.000000, 68.000000)">
                            <path d="M228.652477,4.63157895 C227.286279,4.63157895 226.709077,5.26826996 225.761298,5.26826996 C224.784514,5.26826996 224.041861,4.63264242 222.860201,4.63264242 C221.699712,4.63264242 220.465708,5.32438843 219.68338,6.5064757 C218.58257,8.16966021 218.769108,11.2985511 220.553976,13.964751 C221.192441,14.9179469 222.045033,15.9900878 223.159763,15.9999044 C224.150467,16.008903 224.431025,15.3794109 225.775385,15.3721302 C227.119745,15.3649313 227.373964,16.0067761 228.364835,15.9978593 C229.479314,15.9873064 230.378833,14.8004744 231.017048,13.8467877 C231.474558,13.1640403 231.644593,12.8191489 232,12.0463338 C229.419218,11.0894567 229.004133,7.51055453 231.558492,6.13704275 C230.778748,5.18335601 229.68469,4.63157895 228.652477,4.63157895 Z M227.906503,2.55610568 C228.410835,1.89308702 228.794019,0.95699944 228.654826,0 C227.830764,0.0583102388 226.867,0.595163583 226.304296,1.29497322 C225.79361,1.93031186 225.371878,2.87238666 225.535979,3.7884301 C226.435441,3.81671751 227.366334,3.2665014 227.906503,2.55610568 L227.906503,2.55610568 Z" id="icon_os_mac_os"></path>
                        </g>
                    </g>
                </g>
            </g>
        </g>
    </g>
</svg>