<svg xmlns="http://www.w3.org/2000/svg" width="420" height="350" viewBox="0 0 420 350"><title>feature</title><g style="isolation:isolate"><path fill="#edf1f7" d="M304 254.03l-136-78.52-112 64.67 136 78.52 112-64.67z"/><path fill="#a3b7d6" d="M304 254.03V124.7L168 46.18v129.33l136 78.52z"/><path fill="#c8d4e6" d="M304 124.7l16-9.23V244.8l-16 9.23V124.7z"/><path fill="#edf1f7" d="M320 115.47L184 36.95l-16 9.23 136 78.52 16-9.23z"/><path fill="#c8d4e6" d="M304 254.03v18.48l-112 64.66V318.7l112-64.67z"/><path fill="#a3b7d6" d="M192 318.7L56 240.18l-.1 18.42L192 337.17V318.7z"/><path fill="#5d779b" d="M263.99 258.61L208 290.99v-9.24l56.01-32.36-.02 9.22z"/><path fill="#334866" d="M208 281.75L104 221.7l-.1 9.3L208 290.99v-9.24z"/><path fill="#708db3" d="M208 281.75l56.01-32.36-104.02-60.06L104 221.7l104 60.05z"/><path fill="#c8d4e6" d="M296 129.33l-24 13.78v110.85l24-13.78V129.33z"/><path fill="#edf1f7" d="M296 129.33L176 60.05l-24 13.78 120 69.28 24-13.78z"/><path fill="#a3b7d6" d="M272 253.96l-120-69.28V73.83l120 69.28v110.85z"/><path d="M164 90c-2.2-1.27-4-.23-4 2.31a8.87 8.87 0 0 0 4 6.93c2.2 1.27 4 .23 4-2.31a8.87 8.87 0 0 0-4-6.93z" fill="#f21860"/><path d="M180 99.24c-2.2-1.27-4-.23-4 2.31a8.87 8.87 0 0 0 4 6.93c2.2 1.27 4 .23 4-2.31a8.87 8.87 0 0 0-4-6.93z" fill="#ffc852"/><path d="M196 108.37c-2.2-1.27-4-.23-4 2.31a8.87 8.87 0 0 0 4 6.93c2.2 1.27 4 .23 4-2.31a8.87 8.87 0 0 0-4-6.93z" fill="#2bff96"/><path fill="#fff" d="M264.09 240.16L160 180.13v-74.07l104.09 60.2v73.9z"/><path fill="#f21860" d="M384.03 185.07l-48-27.71V64.98l48 27.71v92.38z"/><path fill="#fa8aae" d="M384.03 185.07l8.03-4.61v-92.4l-8.03 4.63v92.38z"/><path fill="#ffb3cc" d="M344.06 60.38l-8.03 4.6 48 27.71 8.03-4.63-48-27.68z"/><path fill="#b51248" d="M384.03 92.69l.01 27.72-48.01-27.63v-27.8l48 27.71z"/><path fill="#b51248" stroke="#b51248" stroke-linecap="round" stroke-miterlimit="10" stroke-width="7" d="M345.56 150.32l17.73-21.82"/><path d="M365.73 141.27a7.52 7.52 0 0 1-3.61-1.16c-5.42-3.13-10-11.08-10-17.35 0-1.57.33-5.21 3.39-5.21a7.52 7.52 0 0 1 3.61 1.16c5.43 3.14 10 11.08 10 17.35.01 1.57-.33 5.21-3.39 5.21z" fill="#f21860"/><path d="M355.51 120.55a4.57 4.57 0 0 1 2.1.76c4.45 2.58 8.51 9.61 8.51 14.75a4.74 4.74 0 0 1-.4 2.21 4.56 4.56 0 0 1-2.11-.75c-4.45-2.57-8.51-9.6-8.51-14.75a4.76 4.76 0 0 1 .4-2.21m0-6c-3.78 0-6.39 3-6.39 8.21 0 7.32 5.18 16.29 11.51 19.95a10.37 10.37 0 0 0 5.11 1.56c3.78 0 6.4-3 6.4-8.21 0-7.31-5.18-16.29-11.51-19.95a10.36 10.36 0 0 0-5.11-1.56z" fill="#b51248"/><path fill="#8518f2" d="M359.99 258.63l-48-27.71v-92.37l48 27.71v92.37z"/><path fill="#af8afa" d="M359.99 258.63l8.03-4.6v-92.4l-8.03 4.63v92.37z"/><path fill="#ccb3ff" d="M320.02 133.94l-8.03 4.61 48 27.71 8.03-4.63-48-27.69z"/><path fill="#6412b5" d="M359.99 166.26v27.71L311.9 166.3l.09-27.75 48 27.71zM343.9 240.31l-16.02-9.3 8.11-8.85 7.91 18.15z"/><path fill="#6412b5" opacity=".75" d="M343.9 221.81l-16.02-9.3 8.11-8.85 7.91 18.15z"/><path fill="#6412b5" opacity=".5" d="M343.9 203.37l-16.02-9.3 8.11-8.85 7.91 18.15z"/><path fill="#18cef2" d="M336.08 272.5l-48-27.71v-92.38l48 27.71v92.38z"/><g style="mix-blend-mode:multiply" fill="#18cef2"><path style="mix-blend-mode:multiply" d="M328.09 258.61l-32-18.48v-36.95l15.99 9.24v9.23l16 9.25.01 27.71z"/><path d="M328.09 258.61l-8.02-23.09-32.08-18.43 8.1 23.04 32 18.48z"/></g><path fill="#8ae7fa" d="M336.08 272.5l8.03-4.61v-92.4l-8.03 4.63v92.38z"/><path fill="#b3f2ff" d="M296.11 147.81l-8.03 4.6 48 27.71 8.03-4.63-48-27.68z"/><path fill="#18cef2" opacity=".5" style="mix-blend-mode:multiply" d="M336.08 180.12l.01 27.71-48.1-27.67.09-27.75 48 27.71z"/><path fill="#18cef2" opacity=".5" style="mix-blend-mode:multiply" d="M312.08 175.49v9.24l16.02 9.21v-9.24l-16.02-9.21zM296.09 166.28v9.24l8.02 4.6v-9.23l-8.02-4.61z"/><path d="M240 170.9c4.4 2.54 8 8.77 8 13.84s-3.6 7.14-8 4.6-8-8.77-8-13.84 3.6-7.14 8-4.6zM184 138.59c4.4 2.54 8 8.77 8 13.84s-3.6 7.14-8 4.6-8-8.77-8-13.84 3.59-7.19 8-4.6z" fill="#18cef2"/></g></svg>