<svg width="13" height="16" viewBox="0 0 13 16" xmlns="http://www.w3.org/2000/svg"><title>icon_os_mac_os</title><path d="M9.652 4.632c-1.366 0-1.943.636-2.89.636-.977 0-1.72-.635-2.902-.635-1.16 0-2.394.691-3.177 1.873-1.1 1.664-.914 4.793.871 7.459.638.953 1.491 2.025 2.606 2.035.99.009 1.271-.62 2.615-.628 1.345-.007 1.599.635 2.59.626 1.114-.01 2.014-1.198 2.652-2.151.458-.683.628-1.028.983-1.8-2.58-.958-2.996-4.536-.442-5.91-.78-.954-1.873-1.505-2.906-1.505zm-.745-2.076C9.41 1.893 9.794.957 9.655 0c-.824.058-1.788.595-2.35 1.295-.511.635-.933 1.577-.769 2.493.9.029 1.83-.521 2.37-1.232z" fill="#C8D4E5" fill-rule="evenodd"/></svg>