<?xml version="1.0" encoding="UTF-8" standalone="no"?>
<svg width="13px" height="15px" viewBox="0 0 13 15" version="1.1" xmlns="http://www.w3.org/2000/svg" xmlns:xlink="http://www.w3.org/1999/xlink">
    <!-- Generator: Sketch 3.8.2 (29753) - http://www.bohemiancoding.com/sketch -->
    <title>icon_os_linux</title>
    <desc>Created with Sketch.</desc>
    <defs></defs>
    <g id="nteract-page" stroke="none" stroke-width="1" fill="none" fill-rule="evenodd">
        <g id="nteract-landing-page---1a" transform="translate(-454.000000, -485.000000)" fill="#C8D4E5">
            <g id="hero">
                <g id="hero_content" transform="translate(230.000000, 166.000000)">
                    <g id="download" transform="translate(0.000000, 250.000000)">
                        <g id="download--other_platforms" transform="translate(4.000000, 68.000000)">
                            <path d="M231.355085,12.0347205 C231.390226,11.8143985 231.418132,11.587353 231.432602,11.3437575 L229.899311,11.3437575 C228.348967,11.3437575 228.353101,12.3652036 228.286436,13.4559528 C228.149144,13.6041704 227.996919,13.737797 227.832185,13.8547047 L227.832185,15.4579871 C228.034774,15.4399997 228.236029,15.4092522 228.434752,15.3659277 C228.52984,15.6721029 228.646633,16 228.865748,16 C230.416093,16 233,14.4484364 233,13.9312485 C233,13.3375168 232.321983,12.5777678 231.355085,12.0347205 L231.355085,12.0347205 Z M229.586142,11.3437575 L229.899311,11.3437575 C229.899828,11.3406544 229.743243,11.3437575 229.586142,11.3437575 L229.586142,11.3437575 Z M229.586142,11.3437575 L229.272455,11.3437575 C229.271938,11.3468607 229.42904,11.3437575 229.586142,11.3437575 L229.586142,11.3437575 Z M224.731496,14.1427783 C224.648781,14.0902011 224.569548,14.0323277 224.494294,13.9695204 C224.20349,13.3826027 223.857402,12.8247884 223.460731,12.3036582 C223.364285,11.990076 223.294105,11.6689992 223.250917,11.3437575 L222.663854,11.3437575 C222.49503,11.2034422 222.250265,11.2034422 222.081441,11.3437575 L221.654063,11.3437575 C221.645794,11.4471951 221.643727,11.554253 221.64011,11.6592421 C221.248906,11.9840361 220.857186,12.3781333 220.596728,12.3781333 C220.079946,12.3781333 219.563165,14.4468848 220.596728,14.9640727 C221.250973,15.2914526 224.214198,16.5156363 224.73098,15.4812606 C224.838425,15.194132 224.838425,14.8777916 224.73098,14.590663 L224.73098,14.1427783 L224.731496,14.1427783 Z M225.248278,14.4468848 L225.248278,15.3535152 C225.933454,15.4447593 226.624216,15.4874473 227.315404,15.4812606 L227.315404,14.4468848 L225.765059,14.4468848 C225.593516,14.469136 225.419821,14.469136 225.248278,14.4468848 L225.248278,14.4468848 Z M229.342738,10.8265697 L231.449656,10.8265697 C231.449656,8.68230873 230.272944,6.18739441 228.487981,5.39609696 C228.596445,5.18854668 228.681713,4.96966047 228.742237,4.74340585 L227.664748,5.82174258 C228.753411,6.9618191 229.367594,8.47389139 229.38253,10.0507878 C229.382247,10.3098853 229.368966,10.5688052 229.342738,10.8265697 L229.342738,10.8265697 Z M221.71711,10.8265697 L223.199239,10.8265697 C223.188387,10.6579664 223.181152,10.48626 223.181152,10.3093818 C223.181152,9.32672482 224.010586,7.51656725 224.881363,6.32186326 L224.443132,5.88277075 C222.979246,7.15652903 222.013469,8.90802095 221.71711,10.8265697 L221.71711,10.8265697 Z M226.02345,4.10312726 C226.725054,4.09819499 227.421854,4.21923684 228.080757,4.46050409 L228.855929,3.71420198 C228.804251,1.98834603 227.792393,1 226.540232,1 C225.25603,1 224.214715,2.03437575 224.214715,3.84453332 L224.214715,4.37309933 C224.80034,4.19131649 225.410309,4.10027248 226.02345,4.10312726 L226.02345,4.10312726 Z M226.798622,3.06875151 C227.084033,3.06875151 227.315404,3.30030441 227.315404,3.58593939 L227.315404,4.10312726 L226.798622,4.10312726 L226.281841,3.58593939 C226.281841,3.30030441 226.513212,3.06875151 226.798622,3.06875151 L226.798622,3.06875151 Z M225.248278,3.06875151 C225.533688,3.06875151 225.765059,3.30030441 225.765059,3.58593939 L225.765059,4.10312726 L225.248278,4.10312726 L224.731496,3.58593939 C224.731496,3.30030441 224.962867,3.06875151 225.248278,3.06875151 L225.248278,3.06875151 Z M224.399723,4.85098093 C224.805913,5.39299383 225.748006,6.70871979 225.765059,6.68906665 L227.079235,5.37385788 C227.090087,5.38006413 227.100423,5.38782195 227.110758,5.3940282 L227.668882,4.85718719 C226.602019,4.54338192 225.467768,4.54122863 224.399723,4.85098093 L224.399723,4.85098093 Z" id="icon_os_linux"></path>
                        </g>
                    </g>
                </g>
            </g>
        </g>
    </g>
</svg>