<?xml version="1.0" encoding="UTF-8" standalone="no"?>
<svg width="16px" height="13px" viewBox="0 0 16 13" version="1.1" xmlns="http://www.w3.org/2000/svg" xmlns:xlink="http://www.w3.org/1999/xlink">
    <!-- Generator: Sketch 3.8.2 (29753) - http://www.bohemiancoding.com/sketch -->
    <title>icon_os_win</title>
    <desc>Created with Sketch.</desc>
    <defs></defs>
    <g id="nteract-page" stroke="none" stroke-width="1" fill="none" fill-rule="evenodd">
        <g id="nteract-landing-page---1a" transform="translate(-429.000000, -486.000000)" fill="#C8D4E5">
            <g id="hero">
                <g id="hero_content" transform="translate(230.000000, 166.000000)">
                    <g id="download" transform="translate(0.000000, 250.000000)">
                        <g id="download--other_platforms" transform="translate(4.000000, 68.000000)">
                            <path d="M211,2 L211,7.90909091 L203,7.90909091 L203,2.59090909 L211,2 Z M201.736335,2.76470588 C201.738093,4.55103563 201.666667,7.90909074 201.666667,7.90909074 L195,7.90909074 C195,7.90909074 195.066722,8.11602522 195,8.11587625 L195,3.42760186 C195,3.42760186 199.642001,2.99675746 201.736335,2.76470588 Z M195,9.0909091 L201.735279,9.0909091 C201.735279,9.0909091 201.738796,12.438684 201.735279,14.2352941 C199.646548,13.9603343 195,13.818182 195,13.818182 L195,9.0909091 Z M203,9.0909091 L211,9.0909091 L211,15 L203,14.4090909 L203,9.0909091 Z" id="icon_os_win"></path>
                        </g>
                    </g>
                </g>
            </g>
        </g>
    </g>
</svg>