<svg xmlns="http://www.w3.org/2000/svg" xmlns:xlink="http://www.w3.org/1999/xlink" width="420" height="350" viewBox="0 0 420 350"><defs><linearGradient id="b" x1="328" y1="20.89" x2="328" y2="177.95" gradientUnits="userSpaceOnUse"><stop offset="0" stop-color="#fff"/><stop offset="1" stop-color="#18cef2"/></linearGradient><linearGradient id="c" x1="362.69" y1="95.85" x2="393.59" y2="165.5" gradientUnits="userSpaceOnUse"><stop offset="0" stop-color="#b1e5f2" stop-opacity="0"/><stop offset="1" stop-color="#f2f2f2"/></linearGradient><linearGradient id="a" x1="267.39" y1="226.73" x2="326.39" y2="208.07" gradientUnits="userSpaceOnUse"><stop offset="0" stop-color="#b1e5f2" stop-opacity="0"/><stop offset="1" stop-color="#b3f2ff"/></linearGradient><linearGradient id="d" x1="234.9" y1="206.01" x2="297.57" y2="170.34" xlink:href="#a"/></defs><title>feature</title><path fill="#5d779b" d="M416 235.56V124.71l-88 50.81v110.85l88-50.81z"/><path fill="#334866" d="M328 175.52l-88-50.81v110.85l88 50.81V175.52z"/><path fill="#a3b7d6" d="M416 124.71L328 73.9l-88 50.81 88 50.81 88-50.81z"/><path fill="#18cef2" d="M304 226.31l.1-37-40.1-23.03v36.96l40 23.07z"/><path fill="#b3f2ff" d="M384.1 124.77l-56.1 32.3-56.1-32.3L328 92.38l56.1 32.39z"/><path fill="#74e2f7" d="M328 92.38v18.48l40.1 23.12 16-9.21L328 92.38z"/><path fill="#46d8f5" d="M328 110.86v18.46l24.1 13.92 16-9.26-40.1-23.12z"/><path fill="#18cef2" d="M328 129.32l-.02 18.5 8.12 4.66 16-9.24-24.1-13.92z"/><path fill="#129bb5" d="M328 157.07l8.1-4.59-8.12-4.66.02 9.25z"/><path fill="#d1f7ff" d="M328 92.38l-56.1 32.39 16.2 9.33 39.9-23.24V92.38z"/><path fill="#b3f2ff" d="M328 129.32v-18.46l-39.9 23.24 15.84 9.12 24.06-13.9z"/><path fill="#8ae7fa" d="M328 129.32l-.02 18.5-7.88 4.7-16.16-9.3 24.06-13.9z"/><path fill="#18cef2" d="M327.98 147.82l.02 9.25-7.9-4.55 7.88-4.7z"/><path d="M296 230.94l-32-18.44-24 13.79L39.95 110.82l-32 18.49-7.95-4.6v9.24l7.94 4.59L216 258.61a48 48 0 0 0 48 0l32-18.44 8-4.62v-9.25z" fill="#c8d4e6"/><path d="M0 124.71l216 124.65a48 48 0 0 0 48 0l40-23 .1-37-8.1-4.6-56 32.32L40 101.61z" fill="#edf1f7"/><path fill="#f21860" d="M188.54 180.12l.02 48.27-31.23-18.18 31.21-30.09z"/><path fill="#ffb3cc" d="M188.54 180.12l31.51 30.09-31.49 18.18-.02-48.27z"/><path d="M208.26 202.39A7.13 7.13 0 0 1 205 208c-1.79 1-3.24.21-3.24-1.85a7.13 7.13 0 0 1 3.24-5.58c1.81-1.06 3.26-.23 3.26 1.82z" fill="#fff"/><path d="M207 203.11a4.36 4.36 0 0 1-2 3.42 1.2 1.2 0 0 1-2-1.13 4.36 4.36 0 0 1 2-3.42 1.2 1.2 0 0 1 2 1.13z" fill="#334866"/><path d="M197.69 208.88a7.13 7.13 0 0 1-3.24 5.58c-1.79 1-3.24.21-3.24-1.85a7.13 7.13 0 0 1 3.24-5.58c1.79-1.03 3.24-.2 3.24 1.85z" fill="#fff"/><path d="M196.43 209.61a4.36 4.36 0 0 1-2 3.42 1.2 1.2 0 0 1-2-1.13 4.36 4.36 0 0 1 2-3.42 1.2 1.2 0 0 1 2 1.13z" fill="#334866"/><path d="M210.52 218l-6.69-8.79c-.54-.78-1.55-.95-2.71-.28a7 7 0 0 0-3.14 5.43c0 1.3.61 2.09 1.5 2.21z" fill="#f21860"/><path fill="#5d779b" d="M264 166.28v36.96l15.94-9.29.27-18.56-16.21-9.11z"/><path fill="#b3f2ff" d="M328 9.23l47.74 27.57v55.12L328 119.49l-47.74-27.57V36.8L328 9.23z"/><path fill="#18cef2" d="M328 119.49V64.36L280.26 36.8v55.12L328 119.49z"/><path fill="#8ae7fa" d="M328 64.36l47.74-27.56v55.12L328 119.49V64.36zM96 170.88l24.19-13.94-.19-36.85-24 13.86v36.93z"/><path fill="#18cef2" d="M96 170.88l-23.99-13.84-.01-36.95 24 13.86v36.93z"/><path fill="#18cef2" d="M96 106.24l-24 13.85 24 13.86v-27.71z"/><path fill="#b3f2ff" d="M96 133.95v-27.71l24 13.85-24 13.86z"/><path fill="#af8afa" d="M120 120.09l-24 13.86-24-13.86.01 27.72L96 161.66l24-13.86v-27.71z"/><path d="M102 142.89a13.54 13.54 0 0 1 6.14-10.6c3.39-2 6.14-.39 6.14 3.5-.04 3.9-12.28 11-12.28 7.1z" fill="#fff"/><path d="M104.12 140.91a8.76 8.76 0 0 1 4-6.86c2.2-1.27 4-.25 4 2.27-.04 2.52-8 7.11-8 4.59z" fill="#334866"/><path fill="#8518f2" d="M96 133.95v27.71l-23.99-13.85-.01-27.72 24 13.86z"/><path d="M117 147.78l-6.7-3.86a1.44 1.44 0 0 0-1.38.14 4.44 4.44 0 0 0-2 3.43 1.37 1.37 0 0 0 .54 1.26l6.83 3.92 1.06-2.72.66.39z" fill="#f21860"/><path d="M115.62 147.93a1.22 1.22 0 0 1 2 1.13 4.4 4.4 0 0 1-2 3.43c-1.12.64-2 .13-2-1.13a4.44 4.44 0 0 1 2-3.43z" fill="#ffb3cc"/><path d="M163.24 163.58a22.77 22.77 0 0 0-22.77-22.64 22.77 22.77 0 0 0-22.77 22.64V182.16c0 3.37 2.21 6.74 6.65 9.3 8.86 5.12 23.38 5.12 32.25 0 4.44-2.56 6.65-5.93 6.66-9.3v-18.44-.07c0-.07-.02-.05-.02-.07z" fill="#af8afa"/><path d="M162.42 165.12a13.83 13.83 0 0 1-5.83 5.8c-8.87 5.12-23.38 5.12-32.25 0-4.26-2.46-6.45-5.67-6.61-8.91v6.59c0 3.38 2.21 6.75 6.65 9.32 8.86 5.12 23.38 5.12 32.25 0 5.95-3.45 7.88-8.38 5.79-12.8z" fill="#18cef2"/><path d="M165.46 159.63l-3.95-2.32c-1.93-1.12-4.6-1-7.56.74-5.88 3.39-10.65 11.62-10.65 18.36 0 3.38 1.19 5.74 3.12 6.84l4 2.33-.49-1.68a10.34 10.34 0 0 0 4.05-1.42c5.88-3.39 10.65-11.62 10.65-18.36a10.73 10.73 0 0 0-.55-3.54z" fill="#a3b7d6"/><path d="M168.38 166.35c0 6.75-4.77 15-10.65 18.36s-10.65.68-10.65-6.07 4.77-15 10.65-18.36 10.65-.68 10.65 6.07z" fill="#fff"/><path d="M156.49 174a4.75 4.75 0 0 1-2.15 3.72 1.31 1.31 0 0 1-2.15-1.23 4.75 4.75 0 0 1 2.15-3.72 1.31 1.31 0 0 1 2.15 1.23zM164.59 169.23a4.75 4.75 0 0 1-2.15 3.72 1.31 1.31 0 0 1-2.15-1.23 4.75 4.75 0 0 1 2.15-3.72 1.31 1.31 0 0 1 2.15 1.23z" fill="#334866"/><path fill="#edf1f7" d="M184 230.94v9.24l-16 9.23v-9.23l16-9.24z"/><path fill="#edf1f7" d="M168 240.18l-40-23.1 16.03-9.25L184 230.94l-16 9.24z"/><path fill="#c8d4e6" d="M168 249.41v-9.23l-40-23.1v9.23l40 23.1z"/><path fill="#edf1f7" d="M168.05 249.4v9.24l-16 9.24v-9.24l16-9.24z"/><path fill="#edf1f7" d="M152.05 258.64l-40-23.09 16.03-9.26 39.97 23.11-16 9.24z"/><path fill="#c8d4e6" d="M152.05 267.88v-9.24l-40-23.09v9.22l40 23.11z"/><path fill="#edf1f7" d="M152 267.9v9.24l-16 9.24v-9.24l16-9.24z"/><path fill="#edf1f7" d="M136 277.14l-40-23.09 16.03-9.26L152 267.9l-16 9.24z"/><path fill="#c8d4e6" d="M136 286.38v-9.24l-40-23.09v9.22l40 23.11z"/><path fill="#edf1f7" d="M136.05 286.28v9.24l-16 9.23v-9.23l16-9.24zM120.05 295.52l-40-23.1 16.03-9.25 39.97 23.11-16 9.24z"/><path fill="#c8d4e6" d="M120.05 304.75v-9.23l-40-23.1v9.23l40 23.1z"/><path fill="#edf1f7" d="M104.12 184.83v9.23l-16 9.24v-9.24l16-9.23zM88.12 194.06l-40-23.09 16.03-9.25 39.97 23.11-16 9.23z"/><path fill="#c8d4e6" d="M88.12 203.3v-9.24l-40-23.09v9.23l40 23.1z"/><path fill="#edf1f7" d="M88.17 203.29v9.24l-16 9.24v-9.24l16-9.24z"/><path fill="#edf1f7" d="M72.17 212.53l-40-23.09 16.03-9.26 39.97 23.11-16 9.24z"/><path fill="#c8d4e6" d="M72.17 221.77v-9.24l-40-23.09v9.22l40 23.11z"/><path fill="#edf1f7" d="M72.12 221.79v9.24l-16 9.24v-9.24l16-9.24z"/><path fill="#edf1f7" d="M56.12 231.03l-40-23.09 16.03-9.26 39.97 23.11-16 9.24z"/><path fill="#c8d4e6" d="M56.12 240.27v-9.24l-40-23.09v9.22l40 23.11z"/><path fill="#edf1f7" d="M56.17 240.17v9.23l-16 9.24v-9.24l16-9.23z"/><path fill="#edf1f7" d="M40.17 249.4l-40-23.09 16.03-9.25 39.97 23.11-16 9.23z"/><path fill="#c8d4e6" d="M40.17 258.64v-9.24l-40-23.09v9.22l40 23.11z"/><path opacity=".5" fill="url(#b)" d="M384.1 124.77l-56.1 32.3-56.1-32.3V9.23l112.2 2.16v113.38z"/><path fill="url(#c)" d="M384.1 124.77l-56.1 32.3V36.95l56.1-32.27v120.09z"/><g opacity=".6"><path fill="#18cef2" opacity=".5" d="M381 89h6v6h-6z"/><path fill="#8518f2" opacity=".5" d="M391.172 78.9l2.829-2.828 2.828 2.829-2.828 2.828z"/><path fill="#18cef2" opacity=".25" d="M381.8 67.144l3.978-.418.419 3.978-3.979.418z"/><path fill="#18cef2" d="M311.999 120.766l3.978-.418.418 3.978-3.978.418zM269.793 99.842l3.978-.418.418 3.978-3.978.418z"/><path fill="#18cef2" opacity=".6" d="M272.93 87.849l3.106-2.521 2.521 3.105-3.105 2.521z"/><path fill="#18cef2" opacity=".25" d="M260.13 80.033l3.106-2.522 2.521 3.106-3.105 2.521zM367.889 106.064l3.106-2.521 2.52 3.105-3.105 2.521z"/><path fill="#8518f2" opacity=".25" d="M269.644 70.42l-3.257-.462.462-3.257 3.258.463z"/><path fill="#f21860" opacity=".25" d="M375.534 29.36l-3.257-.463.462-3.257 3.257.463zM257.396 53.242l-3.257-.462.462-3.258 3.258.463z"/><path fill="#18cef2" opacity=".25" d="M393.447 46.533l-3.258-.462.463-3.258 3.257.463zM275.076 32.21l-3.257-.463.462-3.257 3.257.462z"/></g><path fill="#ffb3cc" d="M103.95 110.83L96 115.47v-9.23l7.95 4.59z"/><path fill="#f21860" d="M96 115.47l-7.99-4.62 7.99-4.61v9.23z"/><path fill="url(#a)" d="M248 221.72v36.95l56-32.36.1-37-56.1 32.41z"/><path fill="url(#d)" d="M304.1 189.31L264 166.28l-55.9 32.52 39.9 22.92 56.1-32.41z"/><path fill="#8ae7fa" d="M208 281.75V291l-16 9.2V291l16-9.25z"/><path fill="#18cef2" d="M192 291l-16-9.25-.03 9.25 16.03 9.2V291z"/><path fill="#b3f2ff" d="M208 281.75l-16-9.24-16 9.24 16 9.25 16-9.25z"/><path fill="#af8afa" d="M208 267.92v9.25l-16 9.2v-9.2l16-9.25z"/><path fill="#8518f2" d="M192 277.17l-16-9.25-.03 9.25 16.03 9.2v-9.2z"/><path fill="#ccb3ff" d="M208 267.92l-16-9.24-16 9.24 16 9.25 16-9.25z"/><path fill="#c8d4e6" d="M195.95 297.93v18.49L192 318.7v-18.5l3.95-2.27z"/><path fill="#5d779b" d="M188.05 297.93v18.49l3.95 2.28v-18.5l-3.95-2.27z"/><path fill="#fa8aae" d="M224.01 78.54v9.26l-16 9.2v-9.2l16-9.26z"/><path fill="#f21860" d="M208.01 87.8l-16-9.26-.02 9.26 16.02 9.2v-9.2z"/><path fill="#ffb3cc" d="M224.01 78.54l-16-9.23-16 9.23 16 9.26 16-9.26z"/><path fill="#af8afa" d="M224.01 64.72v9.25l-16 9.2v-9.2l16-9.25z"/><path fill="#8518f2" d="M208.01 73.97l-16-9.25-.02 9.25 16.02 9.2v-9.2z"/><path fill="#ccb3ff" d="M224.01 64.72l-16-9.24-16 9.24 16 9.25 16-9.25z"/><path fill="#c8d4e6" d="M211.96 94.73v18.49l-3.95 2.28V97l3.95-2.27z"/><path fill="#5d779b" d="M204.06 94.73v18.49l3.95 2.28V97l-3.95-2.27z"/><path fill="#8ae7fa" d="M256.11 290.99v9.25l-16 9.2v-9.2l16-9.25z"/><path fill="#18cef2" d="M240.11 300.24l-16-9.25-.02 9.25 16.02 9.2v-9.2z"/><path fill="#b3f2ff" d="M256.11 290.99l-16-9.24-16 9.24 16 9.25 16-9.25z"/><path fill="#c8d4e6" d="M244.06 307.17v18.49l-3.95 2.28v-18.5l3.95-2.27z"/><path fill="#5d779b" d="M236.16 307.17v18.49l3.95 2.28v-18.5l-3.95-2.27z"/><path fill="#8ae7fa" d="M72 64.69l.02 9.22-8.01 4.61v-9.21L72 64.69z"/><path fill="#18cef2" d="M64.01 69.31l-8.03-4.64v9.24l8.03 4.61v-9.21z"/><path fill="#b3f2ff" d="M72 64.69l-7.96-4.62-8.06 4.6 8.03 4.64L72 64.69z"/><path fill="#8ae7fa" d="M72 50.88l.02 9.21-8.01 4.6v-9.2L72 50.88z"/><path fill="#18cef2" d="M64.01 55.49l-8.03-4.64v9.24l8.03 4.6v-9.2z"/><path fill="#b3f2ff" d="M72 50.88l-7.96-4.63-8.06 4.6 8.03 4.64L72 50.88z"/><path fill="#8ae7fa" d="M72 37.05l.02 9.22-8.01 4.61v-9.21L72 37.05z"/><path fill="#18cef2" d="M64.01 41.67l-8.03-4.64v9.24l8.03 4.61v-9.21z"/><path fill="#b3f2ff" d="M72 37.05l-7.96-4.62-8.06 4.6 8.03 4.64L72 37.05z"/><path fill="#c8d4e6" d="M67.96 76.24v18.49l-3.95 2.28V78.52l3.95-2.28z"/><path fill="#5d779b" d="M60.06 76.24v18.49l3.95 2.28V78.52l-3.95-2.28z"/></svg>