<svg xmlns="http://www.w3.org/2000/svg" width="420" height="350" viewBox="0 0 420 350"><title>feature</title><g style="isolation:isolate"><path fill="#a3b7d6" d="M344 106.23l32 18.48.06-36.92L344 69.28v36.95z"/><path fill="#c8d4e6" d="M376 87.76l32-18.48v36.95l-32 18.48V87.76z"/><path fill="#ffb3cc" d="M408 69.28l-32-18.47-32 18.47 32 18.48 32-18.48z"/><path fill="#fa8aae" d="M408 69.28v9.24l-32.03 18.49.03-9.25 32-18.48z"/><path fill="#f21860" d="M375.97 97.01L344 78.52v-9.24l32 18.48-.03 9.25zM375.97 69.52L400 37.2l-23.94 13.88L352 37.2l23.97 32.32z"/><path fill="#ffb3cc" d="M400 37.2l-24.03-23.23L352 37.2l24.06 13.88L400 37.2z"/><path fill="#fa8aae" d="M376.06 51.08l-.09-37.11L400 37.2l-23.94 13.88z"/><path fill="#f54680" d="M376.06 51.08l-.09 18.44L400 37.2l-23.94 13.88z"/><path d="M362.4 107.54a4 4 0 0 1-1.91-.6 11 11 0 0 1-4.91-8.46c0-1.77.75-2.82 2-2.82a4 4 0 0 1 1.92.6 10.93 10.93 0 0 1 4.91 8.45c0 1.77-.75 2.83-2 2.83z" fill="#a3b7d6"/><path d="M357.59 96.66a3.06 3.06 0 0 1 1.42.47 10 10 0 0 1 4.4 7.58c0 .68-.13 1.83-1 1.83a3 3 0 0 1-1.41-.47 10 10 0 0 1-4.41-7.59c0-.68.13-1.82 1-1.82m0-2c-1.78 0-3 1.4-3 3.82a12 12 0 0 0 5.41 9.32 4.9 4.9 0 0 0 2.41.74c1.77 0 3-1.4 3-3.83a11.89 11.89 0 0 0-5.41-9.32 4.92 4.92 0 0 0-2.41-.73z" fill="#fff"/><path fill="none" stroke="#f21860" stroke-linecap="round" stroke-linejoin="round" stroke-width="2" d="M360.03 101.6l-43.64 25.64"/><path fill="#a3b7d6" d="M40 143.17V87.74l48 27.72v55.42l-48-27.71z"/><path fill="#edf1f7" d="M40 87.74l48-27.71 48 27.71-48 27.72-48-27.72z"/><path fill="#c8d4e6" d="M136 87.74l-48 27.72v55.42l48-27.71V87.74z"/><path fill="#8ae7fa" d="M136 87.74l-48 27.72v18.51l48-27.74V87.74z"/><path fill="#18cef2" d="M88 133.97l-48-27.75V87.74l48 27.72v18.51z"/><path fill="#b3f2ff" d="M136 87.74L88 60.03 40 87.74l48 27.72 48-27.72z"/><path fill="#a3b7d6" d="M192 147.8V92.36l56 32.38.03 55.33L192 147.8z"/><path fill="#edf1f7" d="M200 78.52l48-27.71 48 27.71-48 27.71-48-27.71z"/><path fill="#c8d4e6" d="M303.94 92.37L248 124.74l.03 55.33 55.91-32.27V92.37z"/><path fill="#af8afa" d="M304.06 73.87L248 106.23v18.51l56.06-32.38V73.87z"/><path fill="#8518f2" d="M248 124.74l-56-32.38V73.9l56 32.33v18.51z"/><path fill="#ccb3ff" d="M304.06 73.87L248 41.57 192 73.9l56 32.33 56.06-32.36z"/><path fill="#8ae7fa" d="M312 235.56v36.95l-88 50.81v-36.95l88-50.81z"/><path fill="#18cef2" d="M224 323.32l-88-50.81v-36.96l88 50.82v36.95z"/><path fill="#af8afa" d="M312 198.64v36.95l-88 50.81v-36.95l88-50.81z"/><path fill="#8518f2" d="M224 286.4l-88-50.81v-36.95l88 50.81v36.95z"/><path fill="#fa8aae" d="M312 161.66v36.95l-88 50.8v-36.95l88-50.8z"/><path fill="#f21860" d="M224 249.41l-88-50.8v-36.96l88 50.81v36.95z"/><path fill="#ffb3cc" d="M224 212.46l-88-50.81 88-50.8 88 50.81-88 50.8z"/><path fill="#a3b7d6" d="M64 314.06v-55.43l48 27.71v55.43l-48-27.71z"/><path fill="#edf1f7" d="M64 258.63l48-27.71 48 27.71-48 27.71-48-27.71z"/><path fill="#c8d4e6" d="M160 258.63l-48 27.71v55.43l48-27.71v-55.43z"/><path fill="#fa8aae" d="M160 258.63l-48 27.71v18.51l48-27.73v-18.49z"/><path fill="#f21860" d="M112 304.85L64 277.1v-18.47l48 27.71v18.51z"/><path fill="#ffb3cc" d="M160 258.63l-48-27.71-48 27.71 48 27.71 48-27.71z"/><path fill="#b3f2ff" d="M78.88 34.01l-10.83 6.38v9.37L80 56.39h7.99V34.01h-9.11z"/><path fill="#18cef2" d="M88 87.76l-26.5-27V47.63l6.55-7.24L88 41.57v46.19z"/><path fill="#b3f2ff" d="M78.88 34.01l-10.83 6.38v9.37L80 56.39h7.99V34.01h-9.11z"/><path fill="#18cef2" d="M77.13 70.99h10.86v-14.6H80l-2.87 14.6z"/><path fill="#8ae7fa" d="M77.13 70.99L61.5 60.76l6.55-11L80 56.39l-2.87 14.6z"/><path fill="#18cef2" d="M88 87.76l-26.5-27V47.63l6.55-7.24L88 41.57v46.19z"/><path fill="#46d8f5" d="M77.13 70.99L61.5 60.76l6.55-11L80 56.39l-2.87 14.6z"/><path fill="#b3f2ff" d="M97.13 34.01l10.82 6.38v9.37L96 56.39h-7.99V34.01h9.12z"/><path fill="#18cef2" d="M88 87.76l26.5-27V47.63l-6.55-7.24L88 41.57v46.19z"/><path fill="#b3f2ff" d="M97.13 34.01l10.82 6.38v9.37L96 56.39h-7.99V34.01h9.12z"/><path fill="#18cef2" d="M98.87 70.99H88.01v-14.6H96l2.87 14.6z"/><path fill="#8ae7fa" d="M98.87 70.99l15.63-10.23-6.55-11L96 56.39l2.87 14.6z"/><path fill="#b3f2ff" d="M88 87.76l26.5-27V47.63l-6.55-7.24L88 41.57v46.19z"/><path fill="#b3f2ff" d="M97.13 34.01H78.88l-10.83 6.38v9.37L80 56.39h16l11.95-6.63v-9.37l-10.82-6.38z"/><path fill="#74e2f7" d="M98.87 70.99L96 56.39H80l-2.87 14.6h21.74z"/><path fill="#8ae7fa" d="M98.87 70.99l15.63-10.23-6.55-11L96 56.39l2.87 14.6z"/><path fill="#74e2f7" d="M114.5 60.76l-26.5 27 10.87-16.77 15.63-10.23z"/><path fill="#46d8f5" d="M98.87 70.99L88 87.76 77.13 70.99h21.74z"/><path fill="#af8afa" d="M248.03 60.16l7.97-4.63v-27.8l-7.97 4.6v27.83z"/><path fill="#8518f2" d="M248.03 60.16L240 55.53v-27.8l8.03 4.6v27.83z"/><path fill="#d6c2ff" d="M256 27.73l-7.97-4.6-8.03 4.6 8.03 4.6 7.97-4.6z"/><path fill="#af8afa" d="M232.09 69.32l7.97-4.63v-27.8l-7.97 4.6v27.83z"/><path fill="#8518f2" d="M232.09 69.32l-8.03-4.63v-27.8l8.03 4.6v27.83z"/><path fill="#d6c2ff" d="M240.06 36.89l-7.97-4.6-8.03 4.6 8.03 4.6 7.97-4.6z"/><path fill="#af8afa" d="M247.91 78.53l7.97-4.64.12-46.16-8 4.6-.09 46.2z"/><path fill="#8518f2" d="M247.91 78.53l-8.03-4.64.18-46.16 7.94 4.6-.09 46.2z"/><path fill="#d6c2ff" d="M256 27.73l-7.97-4.6-7.97 4.6 7.94 4.6 8-4.6z"/><path fill="#af8afa" d="M248.03 97.01l7.97-4.63V73.87l-7.97 4.6v18.54z"/><path fill="#8518f2" d="M248.03 97.01L240 92.38V73.87l8.03 4.6v18.54z"/><path fill="#d6c2ff" d="M256 73.87l-7.97-4.6-8.03 4.6 8.03 4.6 7.97-4.6z"/><path fill="#af8afa" d="M232.03 87.74L240 83.1V55.39l-7.97 4.6v27.75z"/><path fill="#8518f2" d="M232.03 87.74L224 83.1V55.39l8.03 4.6v27.75z"/><path fill="#d6c2ff" d="M240 55.39l-7.97-4.6-8.03 4.6 8.03 4.6 7.97-4.6z"/><path fill="#af8afa" d="M263.97 69.28l7.97-4.64V46.19l-7.97 4.6v18.49z"/><path fill="#8518f2" d="M263.97 69.28l-8.03-4.64V46.19l8.03 4.6v18.49z"/><path fill="#d6c2ff" d="M271.94 46.19l-7.97-4.6-8.03 4.6 8.03 4.6 7.97-4.6z"/><path fill="#af8afa" d="M216.03 78.54L224 73.9V46.19l-7.97 4.6v27.75z"/><path fill="#8518f2" d="M216.03 78.54L208 73.9V46.19l8.03 4.6v27.75z"/><path fill="#d6c2ff" d="M224 46.19l-7.97-4.6-8.03 4.6 8.03 4.6 7.97-4.6z"/><path fill="#af8afa" d="M264.03 87.74L272 83.1V64.66l-7.97 4.6v18.48z"/><path fill="#8518f2" d="M264.03 87.74L256 83.1V64.66l8.03 4.6v18.48z"/><path fill="#d6c2ff" d="M272 64.66l-7.97-4.6-8.03 4.6 8.03 4.6 7.97-4.6z"/><path fill="#af8afa" d="M280.03 78.54L288 73.9V36.93l-7.97 4.6v37.01z"/><path fill="#8518f2" d="M280.03 78.54L272 73.9V36.93l8.03 4.6v37.01z"/><path fill="#d6c2ff" d="M288 36.93l-7.97-4.6-8.03 4.6 8.03 4.6 7.97-4.6z"/><path d="M108.45 147.38c-2.74 0-3-3.2-3-4.19 0-4.53 3.32-10.27 7.28-12.54a5.9 5.9 0 0 1 2.84-.89c1.86 0 3 1.56 3 4.18 0 4.52-3.33 10.26-7.28 12.54a5.87 5.87 0 0 1-2.84.9z" fill="#c8d4e6"/><path d="M115.59 131.27c1.27 0 1.47 1.68 1.47 2.68 0 4-3.05 9.23-6.53 11.24a4.47 4.47 0 0 1-2.08.69c-1.27 0-1.46-1.69-1.46-2.69 0-4 3-9.23 6.52-11.23a4.51 4.51 0 0 1 2.09-.69m0-3a7.31 7.31 0 0 0-3.58 1.08c-4.43 2.54-8 8.76-8 13.84 0 3.6 1.83 5.68 4.46 5.68a7.27 7.27 0 0 0 3.58-1.09c4.42-2.55 8-8.78 8-13.84 0-3.59-1.82-5.68-4.47-5.68z" fill="#fff"/><path d="M268.43 249.59c-2.74 0-3-3.2-3-4.19 0-4.53 3.32-10.27 7.28-12.54a5.9 5.9 0 0 1 2.84-.89c1.86 0 3 1.56 3 4.18 0 4.52-3.33 10.26-7.28 12.54a5.87 5.87 0 0 1-2.84.9z" fill="#af8afa"/><path d="M275.58 233.49c1.27 0 1.47 1.68 1.47 2.68 0 4-3.05 9.23-6.53 11.24a4.47 4.47 0 0 1-2.08.69c-1.27 0-1.46-1.69-1.46-2.69 0-4 3-9.23 6.52-11.23a4.51 4.51 0 0 1 2.09-.69m0-3a7.31 7.31 0 0 0-3.58 1.08c-4.43 2.54-8 8.76-8 13.84 0 3.6 1.83 5.68 4.46 5.68A7.27 7.27 0 0 0 272 250c4.42-2.55 8-8.78 8-13.84 0-3.59-1.82-5.68-4.47-5.68z" fill="#fff"/><path d="M163.34 202.78a5.86 5.86 0 0 1-2.83-.89c-3.95-2.28-7.28-8-7.28-12.54 0-2.61 1.11-4.18 3-4.18a5.9 5.9 0 0 1 2.84.89c4 2.26 7.29 8 7.28 12.53 0 1-.22 4.19-3 4.19z" fill="#f21860"/><path d="M156.19 186.68a4.51 4.51 0 0 1 2.09.69c3.48 2 6.53 7.24 6.52 11.23 0 1-.19 2.69-1.46 2.69a4.47 4.47 0 0 1-2.08-.69c-3.48-2-6.53-7.26-6.53-11.24 0-1 .19-2.68 1.47-2.68m0-3c-2.64 0-4.47 2.08-4.47 5.68 0 5.06 3.61 11.29 8 13.84a7.27 7.27 0 0 0 3.58 1.09c2.63 0 4.46-2.09 4.46-5.68 0-5.07-3.6-11.3-8-13.84a7.31 7.31 0 0 0-3.58-1.08z" fill="#fff"/><path d="M211.61 304.41a5.86 5.86 0 0 1-2.83-.89c-3.95-2.28-7.28-8-7.28-12.54 0-2.61 1.11-4.18 3-4.18a5.9 5.9 0 0 1 2.84.89c4 2.27 7.29 8 7.28 12.54 0 1-.22 4.19-3 4.19z" fill="#18cef2"/><path d="M204.47 288.3a4.51 4.51 0 0 1 2.09.69c3.48 2 6.53 7.24 6.52 11.23 0 1-.19 2.69-1.46 2.69a4.47 4.47 0 0 1-2.08-.69c-3.48-2-6.53-7.26-6.53-11.24 0-1 .19-2.68 1.47-2.68m0-3c-2.64 0-4.47 2.08-4.47 5.68 0 5.06 3.61 11.29 8 13.84a7.27 7.27 0 0 0 3.58 1.09c2.63 0 4.46-2.09 4.46-5.68 0-5.07-3.6-11.3-8-13.84a7.31 7.31 0 0 0-3.58-1.08z" fill="#fff"/><path d="M112 138.58L130 149a4 4 0 0 1 0 6.93l-20 11.54a4 4 0 0 0 0 6.93l36.95 21.4a10 10 0 0 0 10 0l2.83-1.63M352 240.19l-32.03-18.47-39.94 23.06-8.09-4.64" fill="none" stroke="#18cef2" stroke-linecap="round" stroke-linejoin="round" stroke-width="2"/><path fill="#a3b7d6" d="M264 314.7l32 18.47.06-36.91L264 277.75v36.95z"/><path fill="#c8d4e6" d="M296 296.22l32-18.47v36.95l-32 18.47v-36.95z"/><path fill="#ccb3ff" d="M328 277.75l-32-18.48-32 18.48 32 18.47 32-18.47z"/><path fill="#af8afa" d="M328 277.75v9.24l-32.03 18.49.03-9.26 32-18.47z"/><path fill="#8518f2" d="M295.97 305.48L264 286.99v-9.24l32 18.47-.03 9.26z"/><path d="M282.4 315.63a4 4 0 0 1-1.91-.6 11 11 0 0 1-4.91-8.46c0-1.77.75-2.82 2-2.82a4 4 0 0 1 1.92.6 10.93 10.93 0 0 1 4.91 8.45c0 1.77-.75 2.83-2 2.83z" fill="#a3b7d6"/><path d="M277.59 304.75a3.06 3.06 0 0 1 1.42.47 10 10 0 0 1 4.4 7.58c0 .68-.13 1.83-1 1.83a3 3 0 0 1-1.41-.47 10 10 0 0 1-4.41-7.59c0-.68.13-1.82 1-1.82m0-2c-1.78 0-3 1.4-3 3.82a12 12 0 0 0 5.41 9.32 4.9 4.9 0 0 0 2.41.74c1.77 0 3-1.4 3-3.83a11.89 11.89 0 0 0-5.41-9.32 4.92 4.92 0 0 0-2.41-.73z" fill="#fff"/><path fill="#fa8aae" d="M296.06 286.95l-.09-55.4 16.02 46.19-15.93 9.21z"/><path fill="#f21860" d="M296.06 286.95l-16.03-9.19 15.94-46.21.09 55.4z"/><path fill="#af8afa" style="mix-blend-mode:multiply" d="M309.32 270.06l-13.35 7.7-13.29-7.7-2.65 7.7 16.03 9.19 15.93-9.21-2.67-7.68z"/><path fill="#af8afa" opacity=".75" style="mix-blend-mode:multiply" d="M309.32 270.06l-2.67-7.7-10.68 6.13-10.62-6.13-2.67 7.7 13.29 7.7 13.35-7.7z"/><path fill="#af8afa" opacity=".5" style="mix-blend-mode:multiply" d="M306.65 262.36l-2.67-7.72-7.98 4.63-8.02-4.63-2.63 7.72 10.62 6.13 10.68-6.13z"/><path fill="#af8afa" opacity=".25" style="mix-blend-mode:multiply" d="M303.98 254.64l-2.67-7.67-5.34 3.08-5.31-3.1-2.68 7.69 8.02 4.63 7.98-4.63z"/><path d="M280 309.48l-52.07 30a8 8 0 0 1-8 0l-39.46-22.78a3 3 0 0 1 0-5.2L208 295.63" fill="none" stroke="#8518f2" stroke-linecap="round" stroke-miterlimit="10" stroke-width="2"/><path fill="#a3b7d6" d="M264 207.85v-55.43l48 27.71v55.43l-48-27.71z"/><path fill="#edf1f7" d="M264 152.42l48-27.71 48 27.71-48 27.71-48-27.71z"/><path fill="#c8d4e6" d="M360 152.42l-48 27.71v55.43l48-27.71v-55.43z"/><path fill="#8ae7fa" d="M360 152.42l-48 27.71v18.51l48-27.73v-18.49z"/><path fill="#18cef2" d="M312 198.64l-48-27.75v-18.47l48 27.71v18.51z"/><path fill="#b3f2ff" d="M360 152.42l-48-27.71-48 27.71 48 27.71 48-27.71z"/><path fill="#18cef2" d="M348 152.42l-4 2.31-4-2.31 4-2.31 4 2.31zM316 145.49l-16 9.23-4-2.3 16-9.24 4 2.31zM313.79 153.43l-8 4.61-4-2.3 8-4.62 4 2.31zM324.73 154.3l-12.68 7.35-4-2.31 12.68-7.35 4 2.31zM316 133.94l-4 2.31-4-2.31 4-2.31 4 2.31zM284 152.42l-4 2.31-4-2.31 4-2.31 4 2.31zM316 170.89l-4 2.31-4-2.31 4-2.31 4 2.31z"/><path fill="none" stroke="#18cef2" stroke-linecap="round" stroke-linejoin="round" d="M344 152.42l-32 18.47-32-18.47 32-18.48 32 18.48z"/><path d="M332.66 212c-2.74 0-3-3.2-3-4.19 0-4.53 3.32-10.27 7.28-12.53a5.9 5.9 0 0 1 2.84-.89c1.86 0 3 1.56 3 4.18 0 4.52-3.33 10.26-7.28 12.54a5.86 5.86 0 0 1-2.84.89z" fill="#c8d4e6"/><path d="M339.81 195.94c1.27 0 1.47 1.68 1.47 2.68 0 4-3.05 9.23-6.53 11.24a4.47 4.47 0 0 1-2.08.69c-1.27 0-1.46-1.69-1.46-2.69 0-4 3-9.23 6.52-11.23a4.51 4.51 0 0 1 2.09-.69m0-3a7.31 7.31 0 0 0-3.58 1.08c-4.43 2.54-8 8.76-8 13.84 0 3.6 1.83 5.68 4.46 5.68a7.27 7.27 0 0 0 3.58-1.09c4.42-2.55 8-8.78 8-13.84 0-3.59-1.82-5.68-4.47-5.68z" fill="#fff"/><path d="M336 203.25l27 15.57a10 10 0 0 1 5 8.66v15a4 4 0 0 1-6 3.47l-10-5.77" fill="none" stroke="#18cef2" stroke-linecap="round" stroke-linejoin="round" stroke-width="2"/><path fill="#8ae7fa" d="M88.06 69.32l-32 18.4"/></g></svg>