<svg width="13" height="15" viewBox="0 0 13 15" xmlns="http://www.w3.org/2000/svg"><title>icon_os_linux</title><path d="M11.355 11.035c.035-.22.063-.448.078-.691H9.899c-1.55 0-1.546 1.021-1.613 2.112-.137.148-.29.282-.454.399v1.603c.203-.018.404-.049.603-.092.095.306.212.634.43.634C10.417 15 13 13.448 13 12.931c0-.593-.678-1.353-1.645-1.896zm-1.769-.691H9.9c0-.003-.156 0-.313 0zm0 0h-.314c0 .003.157 0 .314 0zm-4.855 2.799a2.274 2.274 0 0 1-.237-.173 10.302 10.302 0 0 0-1.033-1.666 5.913 5.913 0 0 1-.21-.96h-.587a.456.456 0 0 0-.583 0h-.427c-.008.103-.01.21-.014.315-.391.325-.783.72-1.043.72-.517 0-1.034 2.068 0 2.585.654.327 3.617 1.552 4.134.517a1.27 1.27 0 0 0 0-.89v-.448zm.517.304v.907c.685.09 1.376.133 2.067.127v-1.034h-1.55a2.009 2.009 0 0 1-.517 0zm4.095-3.62h2.107c0-2.145-1.177-4.64-2.962-5.43.108-.208.194-.427.254-.654L7.665 4.822a6.209 6.209 0 0 1 1.678 5.005zm-7.626 0H3.2a8.018 8.018 0 0 1-.018-.518c0-.982.83-2.792 1.7-3.987l-.438-.44a8.216 8.216 0 0 0-2.726 4.945zm4.306-6.724a5.863 5.863 0 0 1 2.058.358l.775-.747C8.804.988 7.792 0 6.54 0 5.256 0 4.215 1.034 4.215 2.845v.528a6.007 6.007 0 0 1 1.808-.27zM6.8 2.07c.285 0 .516.231.516.517v.517H6.8l-.517-.517c0-.286.231-.517.517-.517zm-1.55 0c.285 0 .516.231.516.517v.517h-.517l-.517-.517c0-.286.232-.517.517-.517zm-.85 1.782c.407.542 1.349 1.858 1.366 1.838L7.08 4.374l.032.02.558-.537a5.83 5.83 0 0 0-3.27-.006z" fill="#C8D4E5" fill-rule="evenodd"/></svg>