<svg width="50" height="50" viewBox="0 0 50 50" xmlns="http://www.w3.org/2000/svg"><title>icon_nteract_download</title><defs><filter x="-50%" y="-50%" width="200%" height="200%" filterUnits="objectBoundingBox" id="a"><feOffset dy="4" in="SourceAlpha" result="shadowOffsetOuter1"/><feGaussianBlur stdDeviation="3" in="shadowOffsetOuter1" result="shadowBlurOuter1"/><feColorMatrix values="0 0 0 0 0.0980392157 0 0 0 0 0.176470588 0 0 0 0 0.28627451 0 0 0 0.6 0" in="shadowBlurOuter1" result="shadowMatrixOuter1"/><feMerge><feMergeNode in="shadowMatrixOuter1"/><feMergeNode in="SourceGraphic"/></feMerge></filter></defs><g filter="url(#a)" transform="translate(-11 -5)" fill="none" fill-rule="evenodd"><path fill="#A3B7D6" d="M36 37.973l12 7.098v-23l-12-6.828z"/><path fill="#C8D4E6" d="M24 22.07v23l12-7.097v-22.73z"/><path fill="#5D779B" d="M36 7L17 18.571l3 1.5 16-9.199 16 9.2v22.5l3-2V17.968z"/><path fill="#334866" d="M17 41.571l3 1.5v-23l-3-1.499z"/><path fill="#A3B7D6" d="M20 43.071l4 2v-23l-4-2z"/><path fill="#EDF1F8" d="M20 20.071l4 2 12-6.828 12 6.828v23l4-2.5v-22.5l-16-9.199z"/><path fill="#F98CAF" d="M36 19.905l7.823 4.517v9.034L36 37.973l-7.823-4.517v-9.034z"/><path fill="#F21860" d="M36 37.973v-9.035l-7.823-4.516v9.034zM36 28.939l7.824-4.516v9.033L36 37.974z"/><path fill="#FFF" d="M41.625 29.25l-5.313 5.313L31 29.25h3.188V25h4.25v4.25z"/></g></svg>